<svg id="903b1971-9f50-41a7-82ec-6bbc5bc89073" data-name="Layer 1" xmlns="http://www.w3.org/2000/svg" viewBox="0 0 29.96 29.95"><title>logo</title><path d="M29.92,4.59c0-.06,0-.12,0-.18s0-.27-.08-.4,0-.12,0-.18-.08-.26-.12-.39l-.05-.15a4.85,4.85,0,0,0-.22-.48l0,0a5.1,5.1,0,0,0-.67-1l0-.05c-.12-.13-.24-.25-.36-.37l-.05,0A4.73,4.73,0,0,0,27.78,1h0L27.37.73h0l0,0-.39-.2-.07,0L26.48.33l0,0,0,0L26,.19l-.07,0-.05,0L25.46.09h-.1a5.22,5.22,0,0,0-.53,0h-.89c0,.39,0,.78,0,1.19,0,7.71-.34,18.22,3.84,26.26.19.37.39.73.6,1.09h0l.19-.2.13-.14,0,0,.2-.26.06-.08,0-.07.09-.14.12-.2.06-.1,0,0,.14-.28.07-.14c0-.1.08-.2.12-.31l.06-.17c0-.1.05-.2.08-.3s0-.14.05-.2,0-.1,0-.15,0-.11,0-.17,0-.13,0-.19,0-.17,0-.26S30,25,30,25s0-.05,0-.08h0V5.18h0A5.06,5.06,0,0,0,29.92,4.59Z" transform="translate(0 -0.05)" style="fill:#3d9a64"/><path d="M1.19,21.8,0,21.71v3.16H0a4.88,4.88,0,0,0,0,.56c0,.06,0,.12,0,.17s0,.25.06.37l.05.2c0,.11.06.22.09.32l.07.2c0,.1.08.21.12.3l.09.19.16.29.1.17.2.29.11.14.25.29.09.1a4.85,4.85,0,0,0,.38.35h0L2,29a5.18,5.18,0,0,0,1.32.73l.16.06.23.07.23.06.2,0,.3,0,.16,0,.48,0H24.82l-2.2-1.18C16.83,25.7,10.32,22.46,1.19,21.8Z" transform="translate(0 -0.05)" style="fill:#3d9a64"/><path d="M20.84,1.23,21.77,0H5.13a4.65,4.65,0,0,0-.53,0h0L4.13.15,4,.18,3.66.27,3.5.32,3.2.43,3,.49,2.77.63,2.63.7,2.35.87,2.23,1l-.3.22-.08.06a4.94,4.94,0,0,0-.67.67L1.12,2,.9,2.28.82,2.4l-.17.28-.08.15L.45,3.1l-.07.16c0,.09-.07.19-.11.29s0,.11-.05.16S.16,3.92.13,4l0,.14a5.15,5.15,0,0,0-.1,1H0v13c.38-.13.78-.28,1.19-.45C6,15.8,12.78,11.34,20.84,1.23Z" transform="translate(0 -0.05)" style="fill:#3d9a64"/></svg>